<?xml version="1.0" encoding="UTF-8"?>
<!DOCTYPE svg PUBLIC "-//W3C//DTD SVG 1.1//EN" "http://www.w3.org/Graphics/SVG/1.1/DTD/svg11.dtd">
<svg xmlns="http://www.w3.org/2000/svg" version="1.1" width="512px" height="512px" style="shape-rendering:geometricPrecision; text-rendering:geometricPrecision; image-rendering:optimizeQuality; fill-rule:evenodd; clip-rule:evenodd" xmlns:xlink="http://www.w3.org/1999/xlink">
<g><path style="opacity:0.983" fill="#383737" d="M 151.5,-0.5 C 164.167,-0.5 176.833,-0.5 189.5,-0.5C 210.251,2.92142 229.251,10.7548 246.5,23C 257.557,26.4253 267.224,24.092 275.5,16C 289.928,7.58274 305.261,2.08274 321.5,-0.5C 334.167,-0.5 346.833,-0.5 359.5,-0.5C 395.667,4.91563 425.333,21.749 448.5,50C 482.466,50.8103 503.466,67.6436 511.5,100.5C 511.5,108.167 511.5,115.833 511.5,123.5C 507.986,137.19 501.319,149.19 491.5,159.5C 498.505,220.286 492.005,279.619 472,337.5C 452.073,389.761 416.239,426.594 364.5,448C 345.256,455.415 326.256,463.415 307.5,472C 297.351,477.494 288.185,484.327 280,492.5C 274.709,499.806 268.543,506.139 261.5,511.5C 257.5,511.5 253.5,511.5 249.5,511.5C 245.939,509.45 242.772,506.783 240,503.5C 227.331,486.57 211.164,474.07 191.5,466C 158.652,455.242 127.986,440.242 99.5,421C 69.5861,396.706 48.4194,366.206 36,329.5C 29.0232,308.093 23.8565,286.259 20.5,264C 20.8225,258.799 23.4892,255.965 28.5,255.5C 32.6887,255.182 35.8553,256.848 38,260.5C 42.5354,297.439 53.8688,332.105 72,364.5C 86.6468,388.148 106.147,406.648 130.5,420C 150.971,431.269 172.304,440.603 194.5,448C 219.35,457.864 239.85,473.364 256,494.5C 264.878,481.288 276.045,470.455 289.5,462C 299.041,456.73 308.708,451.73 318.5,447C 346.131,437.911 372.131,425.578 396.5,410C 422.023,391.133 440.856,366.966 453,337.5C 472.356,284.795 479.856,230.461 475.5,174.5C 467.875,182.626 460.042,190.626 452,198.5C 453.531,208.629 449.365,213.129 439.5,212C 438.333,210.833 437.167,209.667 436,208.5C 429.182,174.379 418.182,141.713 403,110.5C 397.752,100.33 391.752,90.6634 385,81.5C 382.011,74.1444 384.344,69.4778 392,67.5C 396.493,68.6539 399.826,71.3206 402,75.5C 410.747,68.2531 419.913,61.5864 429.5,55.5C 401.283,25.8104 366.616,12.977 325.5,17C 306.532,19.32 289.532,26.32 274.5,38C 262.623,43.5259 250.623,43.8592 238.5,39C 207.1,16.9227 172.767,10.9227 135.5,21C 114.555,27.2943 96.7214,38.461 82,54.5C 90.803,61.2487 99.803,68.2487 109,75.5C 110.833,72.3333 113.333,69.8333 116.5,68C 125.852,68.0304 129.019,72.5304 126,81.5C 109.025,106.454 96.0248,133.454 87,162.5C 82.9982,177.841 78.9982,193.174 75,208.5C 69.5135,214.08 64.5135,213.747 60,207.5C 59.6667,204.5 59.3333,201.5 59,198.5C 50.9581,190.626 43.1248,182.626 35.5,174.5C 33.8765,188.437 33.0432,202.437 33,216.5C 31.2872,219.278 28.7872,220.945 25.5,221.5C 21.5075,221.755 18.6742,220.089 17,216.5C 15.8916,197.386 16.7249,178.386 19.5,159.5C 9.68101,149.19 3.01434,137.19 -0.5,123.5C -0.5,115.833 -0.5,108.167 -0.5,100.5C 7.53435,67.6436 28.5343,50.8103 62.5,50C 85.6628,21.7507 115.329,4.91736 151.5,-0.5 Z"/></g>
<g><path style="opacity:1" fill="#ab6e3a" d="M 28.5,255.5 C 26.9007,244.24 25.9007,232.907 25.5,221.5C 28.7872,220.945 31.2872,219.278 33,216.5C 33.0432,202.437 33.8765,188.437 35.5,174.5C 43.1248,182.626 50.9581,190.626 59,198.5C 59.3333,201.5 59.6667,204.5 60,207.5C 64.5135,213.747 69.5135,214.08 75,208.5C 78.9982,193.174 82.9982,177.841 87,162.5C 96.0248,133.454 109.025,106.454 126,81.5C 129.019,72.5304 125.852,68.0304 116.5,68C 113.333,69.8333 110.833,72.3333 109,75.5C 99.803,68.2487 90.803,61.2487 82,54.5C 96.7214,38.461 114.555,27.2943 135.5,21C 172.767,10.9227 207.1,16.9227 238.5,39C 250.623,43.8592 262.623,43.5259 274.5,38C 289.532,26.32 306.532,19.32 325.5,17C 366.616,12.977 401.283,25.8104 429.5,55.5C 419.913,61.5864 410.747,68.2531 402,75.5C 399.826,71.3206 396.493,68.6539 392,67.5C 384.344,69.4778 382.011,74.1444 385,81.5C 391.752,90.6634 397.752,100.33 403,110.5C 418.182,141.713 429.182,174.379 436,208.5C 437.167,209.667 438.333,210.833 439.5,212C 449.365,213.129 453.531,208.629 452,198.5C 460.042,190.626 467.875,182.626 475.5,174.5C 479.856,230.461 472.356,284.795 453,337.5C 440.856,366.966 422.023,391.133 396.5,410C 372.131,425.578 346.131,437.911 318.5,447C 308.708,451.73 299.041,456.73 289.5,462C 276.045,470.455 264.878,481.288 256,494.5C 239.85,473.364 219.35,457.864 194.5,448C 172.304,440.603 150.971,431.269 130.5,420C 106.147,406.648 86.6468,388.148 72,364.5C 53.8688,332.105 42.5354,297.439 38,260.5C 35.8553,256.848 32.6887,255.182 28.5,255.5 Z"/></g>
<g><path style="opacity:1" fill="#f3bc62" d="M 48.5,86.5 C 46.9731,86.427 45.9731,87.0937 45.5,88.5C 32.1537,99.9278 29.987,113.261 39,128.5C 49.5,139 60,149.5 70.5,160C 68.3388,166.483 66.1722,172.983 64,179.5C 49.9663,165.134 36.2996,150.468 23,135.5C 11.4733,112.925 14.9733,93.092 33.5,76C 48.389,65.4349 63.7224,64.7682 79.5,74C 86.3905,79.2717 93.0572,84.7717 99.5,90.5C 97.3238,95.5278 94.6571,100.194 91.5,104.5C 83.3598,98.86 75.3598,93.0267 67.5,87C 61.1866,85.2697 54.8533,85.1031 48.5,86.5 Z"/></g>
<g><path style="opacity:1" fill="#383837" d="M 367.5,135.5 C 364.852,135.262 363.018,133.928 362,131.5C 360.17,120.34 356.837,109.674 352,99.5C 331.63,79.0188 311.796,79.5188 292.5,101C 271.583,111.541 249.916,113.208 227.5,106C 219.562,101.868 212.562,96.5348 206.5,90C 188.104,80.3909 172.271,83.5576 159,99.5C 157.059,103.048 155.393,106.714 154,110.5C 147.333,140.5 140.667,170.5 134,200.5C 131.426,211.245 126.76,220.912 120,229.5C 112,236.833 104,244.167 96,251.5C 80.829,273.805 80.829,296.138 96,318.5C 102.643,326.732 110.81,332.899 120.5,337C 122.447,337.991 124.447,338.325 126.5,338C 107.733,315.392 105.566,291.226 120,265.5C 129.742,251.119 143.242,242.286 160.5,239C 177.5,238.667 194.5,238.333 211.5,238C 240.789,226.784 270.122,226.784 299.5,238C 317.538,238.084 335.538,238.751 353.5,240C 378.552,246.889 394.052,263.056 400,288.5C 402.258,307.39 397.091,323.89 384.5,338C 399.531,334.54 411.031,326.04 419,312.5C 430.093,291.292 428.76,270.959 415,251.5C 407,244.167 399,236.833 391,229.5C 378.815,212.746 373.148,194.08 374,173.5C 375.129,171.859 376.629,170.859 378.5,170.5C 382.594,169.705 385.761,171.038 388,174.5C 389.986,181.41 391.653,188.41 393,195.5C 394.7,202.275 397.367,208.608 401,214.5C 409.916,223.149 418.916,231.816 428,240.5C 448.547,270.117 448.547,299.784 428,329.5C 415.711,344.73 399.878,353.896 380.5,357C 366.833,357.333 353.167,357.667 339.5,358C 327.424,400.902 299.09,423.735 254.5,426.5C 210.984,422.813 183.317,399.98 171.5,358C 157.5,357.667 143.5,357.333 129.5,357C 90.7089,347.541 70.0423,322.874 67.5,283C 68.3192,267.206 73.4858,253.039 83,240.5C 90.4003,232.43 98.4003,225.096 107,218.5C 112.188,211.626 115.854,203.96 118,195.5C 124.361,164.052 131.361,132.719 139,101.5C 150.061,77.3809 168.895,66.2142 195.5,68C 208.264,70.3792 218.931,76.3792 227.5,86C 235.404,91.7455 244.238,94.2455 254,93.5C 261.787,94.0049 269.287,92.8383 276.5,90C 283.45,85.3847 290.116,80.3847 296.5,75C 319.044,63.5094 340.044,65.8428 359.5,82C 371.667,95.8309 377.5,111.998 377,130.5C 375.299,134.875 372.133,136.542 367.5,135.5 Z"/></g>
<g><path style="opacity:1" fill="#f3bc62" d="M 446.5,67.5 C 474.899,67.7348 490.899,81.9014 494.5,110C 494.408,120.343 491.574,129.843 486,138.5C 473,152.167 460,165.833 447,179.5C 444.828,172.983 442.661,166.483 440.5,160C 452.03,148.804 463.197,137.304 474,125.5C 480.682,110.872 477.848,98.3717 465.5,88C 459.135,84.2968 452.468,83.6302 445.5,86C 436.694,91.9725 428.028,98.1392 419.5,104.5C 416.343,100.194 413.676,95.5278 411.5,90.5C 421.424,80.0473 433.091,72.3806 446.5,67.5 Z"/></g>
<g><path style="opacity:1" fill="#f5bd62" d="M 367.5,135.5 C 369.19,136.103 370.69,137.103 372,138.5C 374.105,149.192 376.272,159.859 378.5,170.5C 376.629,170.859 375.129,171.859 374,173.5C 373.148,194.08 378.815,212.746 391,229.5C 399,236.833 407,244.167 415,251.5C 428.76,270.959 430.093,291.292 419,312.5C 411.031,326.04 399.531,334.54 384.5,338C 397.091,323.89 402.258,307.39 400,288.5C 394.052,263.056 378.552,246.889 353.5,240C 335.538,238.751 317.538,238.084 299.5,238C 270.122,226.784 240.789,226.784 211.5,238C 194.5,238.333 177.5,238.667 160.5,239C 143.242,242.286 129.742,251.119 120,265.5C 105.566,291.226 107.733,315.392 126.5,338C 124.447,338.325 122.447,337.991 120.5,337C 110.81,332.899 102.643,326.732 96,318.5C 80.829,296.138 80.829,273.805 96,251.5C 104,244.167 112,236.833 120,229.5C 126.76,220.912 131.426,211.245 134,200.5C 140.667,170.5 147.333,140.5 154,110.5C 155.393,106.714 157.059,103.048 159,99.5C 172.271,83.5576 188.104,80.3909 206.5,90C 212.562,96.5348 219.562,101.868 227.5,106C 249.916,113.208 271.583,111.541 292.5,101C 311.796,79.5188 331.63,79.0188 352,99.5C 356.837,109.674 360.17,120.34 362,131.5C 363.018,133.928 364.852,135.262 367.5,135.5 Z"/></g>
<g><path style="opacity:1" fill="#985f44" d="M 48.5,86.5 C 48.0269,87.9063 47.0269,88.573 45.5,88.5C 45.9731,87.0937 46.9731,86.427 48.5,86.5 Z"/></g>
<g><path style="opacity:1" fill="#cd7148" d="M 56.5,101.5 C 58.3084,101.491 59.9751,101.991 61.5,103C 69.206,109.177 76.8726,115.344 84.5,121.5C 81.3911,128.051 78.5577,134.718 76,141.5C 66.9314,133.101 58.598,124.101 51,114.5C 50.1138,108.946 51.9471,104.613 56.5,101.5 Z"/></g>
<g><path style="opacity:1" fill="#cd7048" d="M 449.5,102.5 C 457.812,102.07 461.312,106.07 460,114.5C 452.402,124.101 444.069,133.101 435,141.5C 432.442,134.718 429.609,128.051 426.5,121.5C 434.382,115.397 442.048,109.064 449.5,102.5 Z"/></g>
<g><path style="opacity:1" fill="#393838" d="M 189.5,127.5 C 219.198,128.367 235.531,143.533 238.5,173C 237.56,201.94 222.726,218.106 194,221.5C 173.096,217.93 159.763,205.93 154,185.5C 149.851,156.095 161.685,136.761 189.5,127.5 Z"/></g>
<g><path style="opacity:1" fill="#393838" d="M 309.5,127.5 C 334,127.511 349.833,139.177 357,162.5C 361.545,190.595 350.711,209.762 324.5,220C 299.432,222.876 282.599,212.376 274,188.5C 268.377,157.719 280.211,137.385 309.5,127.5 Z"/></g>
<g><path style="opacity:1" fill="#fbfbfb" d="M 191.5,144.5 C 213.537,146.378 223.37,158.378 221,180.5C 218.221,194.279 209.887,202.279 196,204.5C 182.993,202.494 174.66,195.161 171,182.5C 167.429,163.97 174.263,151.303 191.5,144.5 Z"/></g>
<g><path style="opacity:1" fill="#fbfbfb" d="M 310.5,144.5 C 325.105,144.291 334.938,150.957 340,164.5C 344.263,186.012 335.93,199.345 315,204.5C 295.194,199.586 286.86,186.92 290,166.5C 293.259,155.744 300.092,148.411 310.5,144.5 Z"/></g>
<g><path style="opacity:1" fill="#3b3b3b" d="M 192.5,161.5 C 197.814,160.74 201.647,162.74 204,167.5C 204.839,172.921 204.506,178.254 203,183.5C 197.186,189.205 192.186,188.538 188,181.5C 187.333,176.5 187.333,171.5 188,166.5C 189.366,164.638 190.866,162.972 192.5,161.5 Z"/></g>
<g><path style="opacity:1" fill="#3b3b3b" d="M 312.5,161.5 C 316.987,161.161 320.487,162.827 323,166.5C 323.667,171.5 323.667,176.5 323,181.5C 320.265,187.122 316.099,188.622 310.5,186C 308.513,184.681 307.346,182.848 307,180.5C 306.333,176.167 306.333,171.833 307,167.5C 308.36,164.977 310.193,162.977 312.5,161.5 Z"/></g>
<g><path style="opacity:1" fill="#5f5541" d="M 240.5,247.5 C 251.172,247.333 261.839,247.5 272.5,248C 281.45,249.151 289.784,251.984 297.5,256.5C 291.583,260.318 285.249,263.484 278.5,266C 272.877,269.955 267.543,274.288 262.5,279C 258.594,280.434 254.594,280.767 250.5,280C 244.5,275.333 238.5,270.667 232.5,266C 225.751,263.484 219.417,260.318 213.5,256.5C 221.872,251.265 230.872,248.265 240.5,247.5 Z"/></g>
<g><path style="opacity:1" fill="#f7eac5" d="M 161.5,255.5 C 172.833,255.5 184.167,255.5 195.5,255.5C 195.912,261.825 198.579,266.991 203.5,271C 210.105,275.136 217.105,278.469 224.5,281C 229.167,285 233.833,289 238.5,293C 251.2,299.436 263.533,298.769 275.5,291C 278.867,287.297 282.534,283.964 286.5,281C 296.155,278.092 304.655,273.259 312,266.5C 314.076,263.107 315.242,259.44 315.5,255.5C 326.172,255.333 336.839,255.5 347.5,256C 374.811,263.643 386.311,281.476 382,309.5C 373.177,331.425 356.844,341.758 333,340.5C 323.771,341.317 314.937,339.817 306.5,336C 296.295,330.065 285.962,324.398 275.5,319C 261.023,314.059 246.69,314.392 232.5,320C 223.575,324.601 214.908,329.601 206.5,335C 188.205,341.821 169.872,342.154 151.5,336C 126.695,320.282 121.195,299.449 135,273.5C 142.023,264.591 150.857,258.591 161.5,255.5 Z"/></g>
<g><path style="opacity:1" fill="#8d2e52" d="M 247.5,332.5 C 262.798,331.364 276.298,335.697 288,345.5C 286.28,360.895 277.78,370.395 262.5,374C 244.495,376.749 231.662,369.916 224,353.5C 222.75,350.923 222.416,348.257 223,345.5C 230.462,339.687 238.629,335.354 247.5,332.5 Z"/></g>
<g><path style="opacity:1" fill="#f6e8c3" d="M 203.5,353.5 C 204.496,353.414 205.329,353.748 206,354.5C 213.868,378.03 230.201,390.697 255,392.5C 280.678,390.82 297.678,377.82 306,353.5C 310.882,355.841 316.049,356.841 321.5,356.5C 312.024,390.301 289.691,407.634 254.5,408.5C 226.081,407.372 205.581,394.039 193,368.5C 191.516,364.553 190.35,360.553 189.5,356.5C 194.536,356.698 199.203,355.698 203.5,353.5 Z"/></g>
</svg>
